<?xml version="1.0" encoding="UTF-8" standalone="no"?>
<!-- Created with Inkscape (http://www.inkscape.org/) -->

<svg
   xmlns:dc="http://purl.org/dc/elements/1.1/"
   xmlns:cc="http://creativecommons.org/ns#"
   xmlns:rdf="http://www.w3.org/1999/02/22-rdf-syntax-ns#"
   xmlns:svg="http://www.w3.org/2000/svg"
   xmlns="http://www.w3.org/2000/svg"
   xmlns:sodipodi="http://sodipodi.sourceforge.net/DTD/sodipodi-0.dtd"
   xmlns:inkscape="http://www.inkscape.org/namespaces/inkscape"
   id="svg2"
   version="1.1"
   inkscape:version="0.48.4 r9939"
   width="241"
   height="124"
   sodipodi:docname="logosimbolo1.gif">
  <metadata
     id="metadata8">
    <rdf:RDF>
      <cc:Work
         rdf:about="">
        <dc:format>image/svg+xml</dc:format>
        <dc:type
           rdf:resource="http://purl.org/dc/dcmitype/StillImage" />
        <dc:title></dc:title>
      </cc:Work>
    </rdf:RDF>
  </metadata>
  <defs
     id="defs6" />
  <sodipodi:namedview
     pagecolor="#ffffff"
     bordercolor="#666666"
     borderopacity="1"
     objecttolerance="10"
     gridtolerance="10"
     guidetolerance="10"
     inkscape:pageopacity="0"
     inkscape:pageshadow="2"
     inkscape:window-width="1366"
     inkscape:window-height="744"
     id="namedview4"
     showgrid="false"
     inkscape:zoom="1.2489627"
     inkscape:cx="120.5"
     inkscape:cy="62"
     inkscape:window-x="0"
     inkscape:window-y="24"
     inkscape:window-maximized="1"
     inkscape:current-layer="svg2" />
  <path
     style="fill:#68b83b"
     d="m 61.722855,118.62698 c -27.89757,0.0698 -51.7313896,-0.0734 -52.9640496,-0.31839 l -2.2412096,-0.44539 -1.50879,-2.1541 -1.5088,-2.15411 0,-52.204917 0,-52.2049202 2.63486,-2.0725805 2.6348596,-2.07258 51.7543596,0 51.754345,0 2.36079,1.91165 2.36078,1.9116505 0,52.5605702 0,52.560577 -2.27716,2.27778 -2.27715,2.27778 -50.722835,0.12698 z m -25.26882,-29.831077 2.52887,-0.29591 0.37122,-1.95429 0.37122,-1.9543 -2.74016,-2.18492 -2.74015,-2.18492 0.71164,-1.15146 0.71165,-1.15146 1.91584,0.60806 1.91584,0.60807 0,-1.06739 0,-1.06739 -2.89301,0 -2.89301,0 -0.67041,1.74707 -0.67042,1.74707 2.6577,2.28606 2.6577,2.28606 -0.57944,1.50999 -0.57944,1.51 -2.01483,-1.07831 -2.01484,-1.07831 0,0.86852 c 0,0.47769 0.32066,1.18918 0.71258,1.5811 l 0.71257,0.71257 2.52888,-0.29591 z m 9.54163,0.20409 4.37762,0 0.31336,-3.25 0.31336,-3.25 1.5,0 1.5,0 0.31336,3.25 0.31336,3.25 0.93664,0 0.93664,0 -0.0153,-2.75 c -0.008,-1.5125 -0.39475,-3.34853 -0.85851,-4.08007 l -0.84319,-1.33008 -2.8915,0.33008 -2.89149,0.33007 -0.42326,3.5 -0.42326,3.5 -0.57674,-3.5 -0.57674,-3.5 -2.75,-0.31642 -2.75,-0.31642 0,0.9728 0,0.9728 2,-0.52301 2,-0.52301 0,1.11663 0,1.11663 -0.92857,0 c -0.51071,0 -1.63985,0.71128 -2.50919,1.58062 l -1.58062,1.58062 0.56821,0.91938 0.56821,0.91938 4.37762,0 z m -1.99566,-1 -1.5,0 0,-0.89301 c 0,-0.49115 0.675,-1.15203 1.5,-1.46861 l 1.5,-0.57561 0,1.46862 0,1.46861 -1.5,0 z m 17.21862,0.92106 1.78138,-0.0789 -1.25,-0.50439 -1.25,-0.50438 0,-2.91667 0,-2.91667 1.25,-0.0304 1.25,-0.0304 -1.75792,-1.02371 -1.75792,-1.02372 -0.99575,0.61541 -0.99575,0.61541 0.58719,2.68871 c 0.32296,1.4788 0.76049,3.25122 0.97229,3.93872 l 0.38509,1.25 1.78139,-0.0789 z m 6.44805,0.0789 2.83333,0 0,-2.41821 c 0,-1.33002 -0.27314,-3.13002 -0.60699,-4 l -0.60699,-1.58179 -2.33399,0 -2.33399,0 -0.68425,1.10714 -0.68425,1.10713 2.04108,-0.64781 2.04107,-0.64781 0.5528,0.89445 0.5528,0.89445 -2.46865,1.12479 c -1.35775,0.61863 -2.46864,1.50943 -2.46864,1.97956 0,0.47012 0.3,1.15477 0.66667,1.52144 0.36666,0.36666 1.94166,0.66666 3.5,0.66666 z m -1.10417,-1.1875 -1.3125,0.4375 0.4375,-1.3125 c 0.24063,-0.72187 1.02813,-1.50937 1.75,-1.75 l 1.3125,-0.4375 -0.4375,1.3125 c -0.24062,0.72188 -1.02812,1.50938 -1.75,1.75 z m 5.87414,1.1875 0.93664,0 0.31336,-3.25 0.31336,-3.25 1.5,0 1.5,0 0.61836,3.5 0.61836,3.5 0.13164,-4.25 0.13164,-4.25 -3.5,0 -3.5,0 0,4 0,4 0.93664,0 z m 13.26336,0 2.8,0 0,-6 0,-6 -1,0 -1,0 0,2 0,2 -1.8,0 -1.8,0 -1.2,1.2 c -0.66,0.66 -1.2,1.92 -1.2,2.8 0,0.88 0.54,2.14 1.2,2.8 l 1.2,1.2 2.8,0 z m -0.73138,-1 -1.53139,0 -0.5756,-1.5 -0.57561,-1.5 0.57561,-1.5 0.5756,-1.5 1.53139,0 1.53138,0 0,3 0,3 -1.53138,0 z m 9.09481,1 2.31854,0 0.581801,-0.94138 0.58181,-0.94139 -2.663571,0.19139 -2.66358,0.19138 -0.44255,-1.25 -0.44255,-1.25 3.16667,0 3.166671,0 -0.39285,-1.17855 c -0.21607,-0.64821 -1.153571,-1.65841 -2.083341,-2.24489 l -1.69048,-1.06633 -1.75,1.10207 -1.75,1.10207 -0.33257,1.69086 -0.33258,1.69085 1.20502,1.45196 1.20502,1.45196 2.31854,0 z m -0.56343,-5 -2.4,0 1.2,-1.2 1.2,-1.2 1.2,1.2 1.2,1.2 -2.4,0 z m 6.491481,4.5 c 0.183464,-0.55 0.616774,-2.27841 0.962914,-3.84092 l 0.62935,-2.84092 1.45812,0.55954 1.45813,0.55953 0,-0.96861 0,-0.96862 -2.5,0 -2.499994,0 0.079,4.25 c 0.0434,2.3375 0.22906,3.8 0.41253,3.25 z m -82.491481,-20.5 1,0 0,-6 0,-6 -1,0 -1,0 0,6 0,6 1,0 z m 4.88164,-2.98864 0.61836,-3.48865 1.75,-0.33468 1.75,-0.33468 0,3.57333 0,3.57332 1.06037,0 1.06036,0 -0.31036,-3.75 -0.31037,-3.75 -3.25,-0.31336 -3.25,-0.31335 0.13164,4.31335 0.13164,4.31336 0.61836,-3.48864 z m 12.24081,2.98864 2.87755,0 0,-6 0,-6 -1,0 -1,0 0,2 0,2 -2.48095,0 -2.48094,0 -0.63072,2.51299 -0.63072,2.51298 1.23411,1.48702 1.23411,1.48701 2.87756,0 z m 0.0798,-1.625 -0.79775,0.49304 -1.30065,-0.80385 -1.30064,-0.80384 0.35987,-1.86869 0.35988,-1.86869 1.73852,-0.33481 1.73851,-0.33481 0,2.51431 0,2.51431 -0.79774,0.49303 z m 8.96441,1.625 2.83333,0 0,-4 0,-4 -0.93664,0 -0.93664,0 -0.31336,3.25 -0.31336,3.25 -1,0 -1,0 -0.31336,-3.25 -0.31336,-3.25 -0.93664,0 -0.93664,0 0,3.33334 c 0,1.83333 0.3,3.63333 0.66667,4 0.36666,0.36666 1.94166,0.66666 3.5,0.66666 z m 6.92373,0 1.97237,0 0.60008,-1.56377 0.60007,-1.56377 -2.30289,-1.61301 -2.30289,-1.61301 1.92143,-0.75293 1.92143,-0.75294 -2.19098,-0.0703 -2.19098,-0.0703 -0.72971,1.18069 -0.72971,1.18069 2.17069,1.44128 c 1.19388,0.79271 2.17069,1.86672 2.17069,2.3867 l 0,0.94542 -2.12523,-0.67452 -2.12523,-0.67453 0.68425,1.10714 0.68425,1.10713 1.97236,0 z m 7.37822,0 1.53138,0 0,-1.05901 0,-1.05902 -1,0.61803 -1,0.61804 0,-3.05902 0,-3.05902 1.25,-0.0304 1.25,-0.0304 -1.75792,-1.02371 -1.75792,-1.02372 -0.85797,0.53026 -0.85797,0.53026 0.44699,2.77386 c 0.24585,1.52563 0.62138,3.33637 0.83451,4.02387 l 0.38751,1.25 1.53139,0 z m 4.41302,-2.90344 0.61836,-3.40344 2,-0.77627 2,-0.77628 -2.75,-0.0703 -2.75,-0.0703 0.13164,4.25 0.13164,4.25 0.61836,-3.40344 z m 6.11836,2.90344 1,0 0,-4 0,-4 -1,0 -1,0 0,4 0,4 1,0 z m 6.4016,0 3.28356,0 -0.60442,-3.75 -0.60442,-3.75 -2.73816,-0.31642 -2.73816,-0.31642 0,0.9728 0,0.9728 2,-0.52301 2,-0.52301 0,1.11663 0,1.11663 -0.92857,0 c -0.51071,0 -1.63985,0.71128 -2.50919,1.58062 l -1.58062,1.58062 0.56821,0.91938 0.56821,0.91938 3.28356,0 z m -0.23493,-1 c -0.45834,0 -1.1211,-0.28776 -1.47282,-0.63948 l -0.63948,-0.63948 0.53183,-0.86052 c 0.29251,-0.47328 0.95528,-0.86052 1.47282,-0.86052 l 0.94098,0 0,1.5 0,1.5 -0.83333,0 z m 5.55673,-1.75 c 0.22182,-1.7875 0.22182,-4.7125 0,-6.5 l -0.40332,-3.25 0,6.5 0,6.5 0.40332,-3.25 z m 12.2766,2.50905 2.5,-0.25905 0.21237,-5.75 0.21236,-5.75 -0.96236,0 -0.96237,0 0,1.93358 0,1.93358 -2.75,0.31642 -2.75,0.31642 -0.33007,2.8915 -0.33008,2.89149 1.33008,0.86756 1.33007,0.86755 2.5,-0.25905 z m -0.59991,-1.05286 -1.09992,0.36042 -1.27253,-1.5333 -1.27253,-1.53331 1.24489,-1.5 1.24489,-1.5 1.44398,0 1.44398,0 -0.31643,2.67288 -0.31642,2.67288 -1.09991,0.36043 z m 9.163335,1.29381 2.31854,0 0.66832,-1.08137 0.66833,-1.08138 -1.85931,0.19653 c -1.02262,0.10809 -2.42181,0.14471 -3.109304,0.0814 l -1.25,-0.11516 0,-1 0,-1 2.999994,0 c 1.65,0 3,-0.18819 3,-0.41821 0,-0.23002 -0.27314,-1.13002 -0.60699,-2 l -0.60699,-1.58179 -2.87396,0 -2.873944,0 -0.63072,2.51299 -0.630721,2.51298 1.234111,1.48702 1.23411,1.48701 2.318534,0 z m -0.62245,-5 -2.059004,0 0.61803,-1 c 0.33992,-0.55 1.266474,-1 2.059014,-1 l 1.44098,0 0,1 0,1 -2.05902,0 z m -31.940975,-5 1.33333,0 -0.66666,-0.66666 -0.66667,-0.66667 -0.66667,0.66667 -0.66666,0.66666 1.33333,0 z m -43.33518,-12 3.26481,0 1.03519,-1.93426 1.03518,-1.93425 0,-4.06575 0,-4.06574 -1,0 -1,0 0,4.37756 0,4.37755 -1.45201,1.20507 -1.45201,1.20506 -2.04799,-0.65001 -2.04799,-0.65 0,-4.93262 0,-4.93261 -1,0 -1,0 0,4.8 0,4.8 1.2,1.2 1.2,1.2 3.26482,0 z m 8.06718,-2 c 0.2528,-1.375 0.91751,-3.05754 1.47713,-3.73899 l 1.01749,-1.23899 0.88669,0.54801 0.88669,0.54801 0,2.94098 0,2.94098 1.06037,0 1.06036,0 -0.31036,-3.75 -0.31037,-3.75 -3.25,-0.1 -3.25,-0.1 0.13618,4.1 0.13619,4.1 0.45963,-2.5 z m 9.268,2 1,0 0,-3.44098 0,-3.44098 -1,-0.61804 -1,-0.61803 0,4.05902 0,4.05901 1,0 z m 6.18521,0 c 0.44814,0 0.81479,-0.17004 0.81479,-0.37787 0,-0.20784 0.68104,-2.00784 1.51342,-4 l 1.51342,-3.62213 -0.8529,0 c -0.4691,0 -1.42671,1.2375 -2.12803,2.75 l -1.27512,2.75 -0.81532,-2.14767 c -0.44842,-1.18122 -1.29685,-2.44528 -1.88539,-2.80902 -0.58854,-0.36374 -1.07008,-0.42505 -1.07008,-0.13625 0,0.2888 0.75835,2.11536 1.68521,4.05902 0.92687,1.94366 2.05187,3.53392 2.5,3.53392 z m 8.93724,0 2.87755,0 0,-1.01905 0,-1.01905 -2.3909,0.60008 -2.39091,0.60008 -0.66811,-1.08103 -0.66811,-1.08103 1.80901,-0.0153 c 0.99496,-0.008 2.45509,-0.42412 3.24472,-0.92378 l 1.4357,-0.90848 -1.30815,-1.57621 -1.30814,-1.57622 -1.89899,0 -1.899,0 -1.12558,2.47039 -1.12558,2.47038 1.26946,1.52962 1.26947,1.52961 2.87756,0 z m -1.12245,-5 -2.4,0 1.2,-1.2 1.2,-1.2 1.2,1.2 1.2,1.2 -2.4,0 z m 5.93964,5 1.06036,0 0,-2.59362 0,-2.59362 2,-0.52301 2,-0.52301 0,-0.91758 0,-0.91758 -2.75,0.36274 -2.75,0.36275 -0.31036,3.67146 -0.31037,3.67147 1.06037,0 z m 8.56036,0 2.5,0 0,-1.89301 0,-1.89301 -1.5,-0.5756 c -0.825,-0.31659 -1.5,-1.02561 -1.5,-1.57561 l 0,-1 1.5,0.57561 1.5,0.5756 0,-1.10699 0,-1.10699 -2.03138,0 -2.03139,0 -0.6247,1.62796 -0.62471,1.62796 2.40609,1.95718 2.40609,1.95718 -2.25,-0.49152 -2.25,-0.49152 0,0.90638 0,0.90638 2.5,0 z m 5.5,0 1,0 0,-3.44098 0,-3.44098 -1,-0.61804 -1,-0.61803 0,4.05902 0,4.05901 1,0 z m 7.2,0 2.8,0 0,-6 0,-6 -1,0 -1,0 0,2 0,2 -1.8,0 -1.8,0 -1.2,1.2 c -0.66,0.66 -1.2,1.92 -1.2,2.8 0,0.88 0.54,2.14 1.2,2.8 l 1.2,1.2 2.8,0 z m -0.53333,-1 c -0.73334,0 -1.63334,-0.3 -2,-0.66666 -0.36667,-0.36667 -0.66667,-1.44353 -0.66667,-2.39302 l 0,-1.72634 1.40224,-0.53809 1.40223,-0.53809 0.59777,0.59777 c 0.32877,0.32877 0.59776,1.64777 0.59776,2.9311 l 0,2.33333 -1.33333,0 z m 8.60259,1 3.4159,0 -0.60779,-3.73923 -0.6078,-3.73924 -1.841,-0.35454 -1.84101,-0.35455 -1.14378,1.20618 -1.14378,1.20617 2.09728,-0.63131 2.09729,-0.63131 0.0858,3.01892 0.0858,3.01891 -1.55557,0 -1.55556,0 1.37245,-1.66262 1.37244,-1.66262 -1.5,0.49549 -1.5,0.49549 -0.32332,1.66713 -0.32333,1.66713 3.41591,0 z m 8.765925,0 2.96481,0 -0.13618,-6.25 -0.13618,-6.25 -0.43337,2.25 -0.43337,2.25 -2.395264,0 -2.39526,0 -1.070371,2 -1.07037,2 1.07037,2 1.070371,2 2.964814,0 z m -0.28821,-1.18631 -1.753024,0.33413 -0.60885,-1.58665 -0.60885,-1.58664 1.18499,-1.42782 1.18499,-1.42783 1.479754,0.56784 1.47975,0.56784 -0.30287,2.1125 -0.30287,2.11251 -1.75302,0.33412 z m -58.305995,-7.81369 c 0.24255,0 0.7191,-0.45 1.05902,-1 l 0.61804,-1 -1.05902,0 -1.05902,0 0,1 c 0,0.55 0.19844,1 0.44098,1 z m 34.22569,-0.33333 0.66666,-0.66667 -0.66666,-0.66666 -0.66667,-0.66667 0,1.33333 0,1.33334 0.66667,-0.66667 z m 104.518225,82.294197 -48.6849,-0.0391 -3.25761,-1.41579 -3.25762,-1.41579 -0.95621,-2.51502 -0.95621,-2.51503 -0.0534,-48.919587 -0.0534,-48.91958 1.05656,-2.77897 c 0.58111,-1.5284302 1.82637,-3.3638307 2.76724,-4.0786607 l 1.71065,-1.29969 51.79545,-0.0318 51.79546,-0.0318 2.45454,2.4545505 2.45455,2.45454 -0.0318,51.7954602 -0.0318,51.795457 -1.29969,1.71069 c -0.71483,0.94087 -2.52981,2.17837 -4.03329,2.75 l -2.73361,1.03931 -48.6849,-0.0391 z m -0.0563,-2.96086 51.72857,0 1.57143,-1.57143 1.57143,-1.57143 0,-51.371867 0,-51.37187 -2.22251,-1.5567002 -2.2225,-1.5567105 -50.70607,0 -50.70606,0 -1.57143,1.5714305 -1.57143,1.5714302 0,51.72857 0,51.728577 1.2,1.2 1.2,1.2 51.72857,0 z m 0.83569,-15.20242 -3.53574,0.2976 -0.71426,-0.71426 -0.71426,-0.714262 0,-38.333325 0,-38.33334 4.51174,0 4.51175,0 -0.26175,38.75 -0.26174,38.749997 -3.53574,0.29759 z m -8.71426,-0.883542 c -0.4125,-0.0473 -1.87791,-0.42905 -3.25647,-0.84839 -1.37857,-0.41934 -4.07857,-1.57235 -6,-2.562255 -1.92144,-0.9899 -4.95603,-2.91154 -6.74353,-4.2703 l -3.25,-2.47048 0,-27.8085 0,-27.80851 3.72784,-3.0728 c 2.05032,-1.69005 4.07532,-3.07281 4.5,-3.07281 l 0.77216,0 0,29 0,29 1.5274,0 1.52741,0 -0.1072,-29.75 -0.10719,-29.75 2.32979,-1.23526 c 1.28138,-0.67939 3.11729,-1.24189 4.07979,-1.25 l 1.75,-0.0147 0,38 0,37.999995 -0.75,-0.0859 z m 15.71249,0.0859 -0.96249,0 0,-15.499995 0,-15.5 4.5,0 4.5,0 0,8.5 0,8.5 1,0 1,0 0,-10 0,-10 -5.5,0 -5.5,0 0,-21 0,-21 1.91709,0 c 1.05441,0 3.86691,0.84961 6.25,1.88802 2.3831,1.03841 6.24541,3.29124 8.58291,5.00627 l 4.25,3.11826 0,10.49372 0,10.49373 -5,0 -5,0 0,-9 0,-9 -1,0 -1,0 0,10 0,10 6,0 6,0 0,15.92208 0,15.92208 -4.17065,3.56992 -4.17066,3.56992 -5.36686,2.007995 c -2.95177,1.1044 -5.79997,2.008 -6.32934,2.008 z"
     id="path2995"
     inkscape:connector-curvature="0" />
</svg>
